<svg width="32" height="32" viewBox="0 0 32 32" fill="none" xmlns="http://www.w3.org/2000/svg">
<rect width="32" height="32" rx="16" fill="#7D11D2"/>
<path d="M13.1892 16.0971C13.1892 14.4887 14.4935 13.1845 16.1029 13.1845C17.7123 13.1845 19.0173 14.4887 19.0173 16.0971C19.0173 17.7056 17.7123 19.0098 16.1029 19.0098C14.4935 19.0098 13.1892 17.7056 13.1892 16.0971ZM11.6137 16.0971C11.6137 18.575 13.6235 20.5836 16.1029 20.5836C18.5822 20.5836 20.592 18.575 20.592 16.0971C20.592 13.6192 18.5822 11.6106 16.1029 11.6106C13.6235 11.6106 11.6137 13.6192 11.6137 16.0971ZM19.7207 11.4328C19.7206 11.6401 19.782 11.8429 19.8972 12.0153C20.0124 12.1878 20.1762 12.3222 20.3679 12.4017C20.5596 12.4811 20.7705 12.502 20.974 12.4616C21.1775 12.4212 21.3645 12.3214 21.5113 12.1749C21.6581 12.0283 21.7581 11.8415 21.7986 11.6381C21.8392 11.4348 21.8185 11.2239 21.7392 11.0323C21.6598 10.8407 21.5254 10.6769 21.353 10.5616C21.1805 10.4464 20.9777 10.3848 20.7702 10.3847H20.7698C20.4916 10.3848 20.2249 10.4953 20.0282 10.6918C19.8315 10.8883 19.7209 11.1548 19.7207 11.4328ZM12.5709 23.2091C11.7185 23.1703 11.2552 23.0284 10.9474 22.9085C10.5392 22.7497 10.248 22.5605 9.94177 22.2549C9.63557 21.9494 9.44603 21.6586 9.28783 21.2507C9.16781 20.9431 9.02583 20.48 8.98709 19.6281C8.9447 18.7071 8.93624 18.4305 8.93624 16.0972C8.93624 13.7639 8.9454 13.488 8.98709 12.5663C9.0259 11.7144 9.16893 11.2522 9.28783 10.9438C9.44673 10.5358 9.63599 10.2448 9.94177 9.93876C10.2475 9.63274 10.5385 9.44332 10.9474 9.28521C11.2551 9.16526 11.7185 9.02337 12.5709 8.98465C13.4924 8.94229 13.7692 8.93383 16.1029 8.93383C18.4365 8.93383 18.7136 8.94299 19.6359 8.98465C20.4882 9.02344 20.9508 9.16638 21.2594 9.28521C21.6676 9.44332 21.9588 9.63316 22.265 9.93876C22.5712 10.2443 22.76 10.5358 22.9189 10.9438C23.039 11.2513 23.1809 11.7144 23.2197 12.5663C23.2621 13.488 23.2705 13.7639 23.2705 16.0972C23.2705 18.4305 23.2621 18.7064 23.2197 19.6281C23.1809 20.48 23.0382 20.943 22.9189 21.2507C22.76 21.6586 22.5708 21.9496 22.265 22.2549C21.9592 22.5603 21.6676 22.7497 21.2594 22.9085C20.9517 23.0284 20.4882 23.1703 19.6359 23.2091C18.7144 23.2514 18.4375 23.2599 16.1029 23.2599C13.7682 23.2599 13.4921 23.2514 12.5709 23.2091ZM12.4985 7.41278C11.5678 7.45513 10.9318 7.60262 10.3764 7.8186C9.80126 8.04165 9.31434 8.34088 8.82776 8.8264C8.34119 9.31191 8.04255 9.79931 7.81937 10.3742C7.60325 10.9296 7.45568 11.5648 7.4133 12.4949C7.37021 13.4265 7.36035 13.7244 7.36035 16.0971C7.36035 18.4699 7.37021 18.7677 7.4133 19.6993C7.45568 20.6295 7.60325 21.2647 7.81937 21.8201C8.04255 22.3946 8.34126 22.8826 8.82776 23.3679C9.31427 23.8532 9.80126 24.152 10.3764 24.3757C10.9329 24.5916 11.5678 24.7391 12.4985 24.7815C13.4312 24.8238 13.7287 24.8344 16.1029 24.8344C18.477 24.8344 18.7751 24.8245 19.7072 24.7815C20.638 24.7391 21.2735 24.5916 21.8293 24.3757C22.4041 24.152 22.8914 23.8534 23.378 23.3679C23.8645 22.8824 24.1625 22.3946 24.3864 21.8201C24.6025 21.2647 24.7507 20.6295 24.7924 19.6993C24.8348 18.767 24.8447 18.4699 24.8447 16.0971C24.8447 13.7244 24.8348 13.4265 24.7924 12.4949C24.75 11.5647 24.6025 10.9292 24.3864 10.3742C24.1625 9.79966 23.8638 9.31268 23.378 8.8264C22.8922 8.34011 22.4041 8.04165 21.83 7.8186C21.2735 7.60262 20.6379 7.45444 19.7079 7.41278C18.7758 7.37042 18.4777 7.35986 16.1036 7.35986C13.7294 7.35986 13.4312 7.36972 12.4985 7.41278Z" fill="white"/>
</svg>
