<svg width="68" height="15" viewBox="0 0 68 15" fill="none" xmlns="http://www.w3.org/2000/svg">
<path d="M0.518999 0.0909088H2.38867L5.23846 5.05007H5.35565L8.20543 0.0909088H10.0751L6.11737 6.71733V11H4.47674V6.71733L0.518999 0.0909088ZM13.6001 11.1651C12.833 11.1651 12.1636 10.9893 11.5919 10.6378C11.0202 10.2862 10.5763 9.79439 10.2602 9.16229C9.94416 8.53018 9.78613 7.79155 9.78613 6.94638C9.78613 6.09766 9.94416 5.35547 10.2602 4.71982C10.5763 4.08416 11.0202 3.59055 11.5919 3.23899C12.1636 2.88743 12.833 2.71165 13.6001 2.71165C14.3671 2.71165 15.0365 2.88743 15.6082 3.23899C16.18 3.59055 16.6238 4.08416 16.9399 4.71982C17.2559 5.35547 17.414 6.09766 17.414 6.94638C17.414 7.79155 17.2559 8.53018 16.9399 9.16229C16.6238 9.79439 16.18 10.2862 15.6082 10.6378C15.0365 10.9893 14.3671 11.1651 13.6001 11.1651ZM13.6054 9.82812C14.1025 9.82812 14.5145 9.69673 14.8412 9.43395C15.1679 9.17116 15.4094 8.82138 15.5656 8.38459C15.7254 7.9478 15.8053 7.46662 15.8053 6.94105C15.8053 6.41903 15.7254 5.93963 15.5656 5.50284C15.4094 5.0625 15.1679 4.70916 14.8412 4.44283C14.5145 4.17649 14.1025 4.04332 13.6054 4.04332C13.1047 4.04332 12.6892 4.17649 12.3589 4.44283C12.0322 4.70916 11.789 5.0625 11.6292 5.50284C11.4729 5.93963 11.3948 6.41903 11.3948 6.94105C11.3948 7.46662 11.4729 7.9478 11.6292 8.38459C11.789 8.82138 12.0322 9.17116 12.3589 9.43395C12.6892 9.69673 13.1047 9.82812 13.6054 9.82812ZM24.3746 7.60689V2.81818H25.9727V11H24.4066V9.5831H24.3214C24.1332 10.0199 23.8313 10.3839 23.4158 10.6751C23.0039 10.9627 22.4908 11.1065 21.8764 11.1065C21.3509 11.1065 20.8857 10.9911 20.4808 10.7603C20.0795 10.5259 19.7635 10.1797 19.5327 9.72159C19.3054 9.26349 19.1918 8.69709 19.1918 8.02237V2.81818H20.7844V7.83061C20.7844 8.38814 20.9389 8.83203 21.2479 9.16229C21.5568 9.49254 21.9581 9.65767 22.4517 9.65767C22.75 9.65767 23.0465 9.5831 23.3413 9.43395C23.6396 9.2848 23.8864 9.0593 24.0817 8.75746C24.2805 8.45561 24.3782 8.07209 24.3746 7.60689ZM28.1127 11V2.81818H29.6521V4.1179H29.7373C29.8865 3.67756 30.1492 3.33132 30.5257 3.07919C30.9056 2.82351 31.3353 2.69567 31.8147 2.69567C31.9142 2.69567 32.0313 2.69922 32.1663 2.70632C32.3048 2.71342 32.4131 2.7223 32.4912 2.73295V4.25639C32.4273 4.23864 32.3137 4.21911 32.1503 4.1978C31.9869 4.17294 31.8236 4.16051 31.6602 4.16051C31.2838 4.16051 30.9482 4.24041 30.6535 4.40021C30.3623 4.55646 30.1315 4.77486 29.961 5.0554C29.7906 5.33239 29.7053 5.64844 29.7053 6.00355V11H28.1127Z" fill="black"/>
<path d="M39.4319 0.0909088V11H37.8392V0.0909088H39.4319ZM45.021 11.1651C44.2539 11.1651 43.5845 10.9893 43.0128 10.6378C42.4411 10.2862 41.9972 9.79439 41.6811 9.16229C41.3651 8.53018 41.207 7.79155 41.207 6.94638C41.207 6.09766 41.3651 5.35547 41.6811 4.71982C41.9972 4.08416 42.4411 3.59055 43.0128 3.23899C43.5845 2.88743 44.2539 2.71165 45.021 2.71165C45.788 2.71165 46.4574 2.88743 47.0291 3.23899C47.6009 3.59055 48.0447 4.08416 48.3608 4.71982C48.6768 5.35547 48.8349 6.09766 48.8349 6.94638C48.8349 7.79155 48.6768 8.53018 48.3608 9.16229C48.0447 9.79439 47.6009 10.2862 47.0291 10.6378C46.4574 10.9893 45.788 11.1651 45.021 11.1651ZM45.0263 9.82812C45.5234 9.82812 45.9354 9.69673 46.2621 9.43395C46.5888 9.17116 46.8303 8.82138 46.9865 8.38459C47.1463 7.9478 47.2262 7.46662 47.2262 6.94105C47.2262 6.41903 47.1463 5.93963 46.9865 5.50284C46.8303 5.0625 46.5888 4.70916 46.2621 4.44283C45.9354 4.17649 45.5234 4.04332 45.0263 4.04332C44.5256 4.04332 44.1101 4.17649 43.7798 4.44283C43.4531 4.70916 43.2099 5.0625 43.0501 5.50284C42.8938 5.93963 42.8157 6.41903 42.8157 6.94105C42.8157 7.46662 42.8938 7.9478 43.0501 8.38459C43.2099 8.82138 43.4531 9.17116 43.7798 9.43395C44.1101 9.69673 44.5256 9.82812 45.0263 9.82812ZM54.0431 14.2386C53.3932 14.2386 52.8339 14.1534 52.3651 13.983C51.8999 13.8125 51.52 13.587 51.2252 13.3065C50.9305 13.0259 50.7103 12.7188 50.5647 12.3849L51.9337 11.8203C52.0296 11.9766 52.1574 12.1417 52.3172 12.3157C52.4806 12.4933 52.7007 12.6442 52.9777 12.7685C53.2583 12.8928 53.6187 12.9549 54.059 12.9549C54.6627 12.9549 55.1617 12.8075 55.5558 12.5128C55.95 12.2216 56.1471 11.7564 56.1471 11.1172V9.50852H56.0459C55.95 9.68253 55.8115 9.87607 55.6304 10.0891C55.4529 10.3022 55.2078 10.4869 54.8953 10.6431C54.5828 10.7994 54.1762 10.8775 53.6755 10.8775C53.0292 10.8775 52.4468 10.7266 51.9284 10.4247C51.4134 10.1193 51.0051 9.6701 50.7032 9.07706C50.4049 8.48047 50.2558 7.74716 50.2558 6.87713C50.2558 6.0071 50.4031 5.26136 50.6979 4.63991C50.9962 4.01847 51.4046 3.54261 51.923 3.21236C52.4415 2.87855 53.0292 2.71165 53.6862 2.71165C54.194 2.71165 54.6041 2.79688 54.9166 2.96733C55.2291 3.13423 55.4724 3.32955 55.6464 3.55327C55.824 3.77699 55.9607 3.97408 56.0566 4.14453H56.1737V2.81818H57.7345V11.1811C57.7345 11.8842 57.5711 12.4613 57.2444 12.9123C56.9177 13.3633 56.4756 13.6971 55.9181 13.9137C55.3641 14.1303 54.7391 14.2386 54.0431 14.2386ZM54.0271 9.55646C54.4852 9.55646 54.8722 9.44993 55.1883 9.23686C55.5079 9.02024 55.7494 8.71129 55.9127 8.31001C56.0796 7.90518 56.1631 7.42045 56.1631 6.85582C56.1631 6.3054 56.0814 5.82067 55.9181 5.40163C55.7547 4.9826 55.515 4.65589 55.199 4.42152C54.8829 4.18359 54.4923 4.06463 54.0271 4.06463C53.5477 4.06463 53.1482 4.18892 52.8286 4.4375C52.509 4.68253 52.2675 5.01633 52.1041 5.43892C51.9443 5.86151 51.8644 6.33381 51.8644 6.85582C51.8644 7.39205 51.9461 7.86257 52.1095 8.2674C52.2728 8.67223 52.5143 8.98828 52.8339 9.21555C53.157 9.44283 53.5548 9.55646 54.0271 9.55646ZM63.3169 11.1651C62.5498 11.1651 61.8804 10.9893 61.3087 10.6378C60.7369 10.2862 60.2931 9.79439 59.977 9.16229C59.661 8.53018 59.5029 7.79155 59.5029 6.94638C59.5029 6.09766 59.661 5.35547 59.977 4.71982C60.2931 4.08416 60.7369 3.59055 61.3087 3.23899C61.8804 2.88743 62.5498 2.71165 63.3169 2.71165C64.0839 2.71165 64.7533 2.88743 65.325 3.23899C65.8968 3.59055 66.3406 4.08416 66.6567 4.71982C66.9727 5.35547 67.1308 6.09766 67.1308 6.94638C67.1308 7.79155 66.9727 8.53018 66.6567 9.16229C66.3406 9.79439 65.8968 10.2862 65.325 10.6378C64.7533 10.9893 64.0839 11.1651 63.3169 11.1651ZM63.3222 9.82812C63.8193 9.82812 64.2313 9.69673 64.558 9.43395C64.8847 9.17116 65.1262 8.82138 65.2824 8.38459C65.4422 7.9478 65.5221 7.46662 65.5221 6.94105C65.5221 6.41903 65.4422 5.93963 65.2824 5.50284C65.1262 5.0625 64.8847 4.70916 64.558 4.44283C64.2313 4.17649 63.8193 4.04332 63.3222 4.04332C62.8215 4.04332 62.406 4.17649 62.0757 4.44283C61.749 4.70916 61.5058 5.0625 61.346 5.50284C61.1897 5.93963 61.1116 6.41903 61.1116 6.94105C61.1116 7.46662 61.1897 7.9478 61.346 8.38459C61.5058 8.82138 61.749 9.17116 62.0757 9.43395C62.406 9.69673 62.8215 9.82812 63.3222 9.82812Z" fill="#FF0000"/>
</svg>
