<svg width="32" height="32" viewBox="0 0 32 32" fill="none" xmlns="http://www.w3.org/2000/svg">
<g clip-path="url(#clip0_344_1877)">
<rect width="32" height="32" rx="16" fill="white"/>
<path fill-rule="evenodd" clip-rule="evenodd" d="M87.5156 0H0V87.5156H87.5156V0ZM16.1027 24.8449C20.931 24.8449 24.8452 20.9308 24.8452 16.1024C24.8452 11.2741 20.931 7.35993 16.1027 7.35993C11.2743 7.35993 7.36017 11.2741 7.36017 16.1024C7.36017 20.9308 11.2743 24.8449 16.1027 24.8449ZM11.1079 15.911C11.1079 15.911 15.4385 14.0686 16.9405 13.4198C17.5162 13.1604 19.4687 12.33 19.4687 12.33C19.4687 12.33 20.3699 11.9667 20.2948 12.8489C20.2767 13.1113 20.1672 13.8473 20.0324 14.754L20.0322 14.7556C19.9804 15.104 19.9248 15.4775 19.8692 15.8591C19.5688 17.8053 19.2434 19.9331 19.2434 19.9331C19.2434 19.9331 19.1934 20.5299 18.7678 20.6337C18.3423 20.7375 17.6413 20.2705 17.5162 20.1666C17.4945 20.1497 17.3938 20.0816 17.2428 19.9793L17.2427 19.9792C16.6978 19.6101 15.4975 18.7972 14.9879 18.3502C14.8127 18.1945 14.6125 17.8831 15.013 17.5198C15.9141 16.6635 16.9905 15.5996 17.6413 14.9249C17.9418 14.6135 18.2421 13.8869 16.9905 14.7692C15.2132 16.0407 13.461 17.2344 13.461 17.2344C13.461 17.2344 13.0604 17.4939 12.3095 17.2603C11.5585 17.0268 10.6824 16.7154 10.6824 16.7154C10.6824 16.7154 10.0816 16.3262 11.1079 15.911Z" fill="#34AADF"/>
</g>
<defs>
<clipPath id="clip0_344_1877">
<rect width="32" height="32" rx="16" fill="white"/>
</clipPath>
</defs>
</svg>
