<svg width="32" height="32" viewBox="0 0 32 32" fill="none" xmlns="http://www.w3.org/2000/svg">
<g clip-path="url(#clip0_344_1873)">
<rect width="32" height="32" rx="16" fill="white"/>
<path fill-rule="evenodd" clip-rule="evenodd" d="M87.5156 0H0V87.5156H87.5156V0ZM24.5796 11.5986C24.3707 10.8132 23.7526 10.1936 22.9663 9.98119C21.5444 9.6001 15.8397 9.6001 15.8397 9.6001C15.8397 9.6001 10.1379 9.6001 8.71319 9.98119C7.92973 10.1906 7.31167 10.8103 7.09985 11.5986C6.71973 13.0241 6.71973 16.0001 6.71973 16.0001C6.71973 16.0001 6.71973 18.9761 7.09985 20.4016C7.30877 21.187 7.92683 21.8066 8.71319 22.019C10.1379 22.4001 15.8397 22.4001 15.8397 22.4001C15.8397 22.4001 21.5444 22.4001 22.9663 22.019C23.7497 21.8096 24.3678 21.1899 24.5796 20.4016C24.9597 18.9761 24.9597 16.0001 24.9597 16.0001C24.9597 16.0001 24.9597 13.0241 24.5796 11.5986ZM14.0175 18.7434L18.7559 16.0001L14.0175 13.2568V18.7434Z" fill="#FF3000"/>
</g>
<defs>
<clipPath id="clip0_344_1873">
<rect width="32" height="32" rx="16" fill="white"/>
</clipPath>
</defs>
</svg>
