<svg width="24" height="24" viewBox="0 0 24 24" fill="none" xmlns="http://www.w3.org/2000/svg">
<g id="pdf">
<g id="Group">
<path id="Vector" d="M15.8502 0H3.41216C3.06587 0 2.78516 0.280714 2.78516 0.825429V23.5714C2.78516 23.7193 3.06587 24 3.41216 24H20.5867C20.933 24 21.2137 23.7193 21.2137 23.5714V5.562C21.2137 5.26371 21.1739 5.16771 21.1036 5.097L16.1167 0.110143C16.046 0.0398571 15.95 0 15.8502 0Z" fill="white"/>
<path id="Vector_2" d="M16.0703 0.0646973V5.14284H21.1485L16.0703 0.0646973Z" fill="#D9D7CA"/>
<path id="Vector_3" d="M8.36303 14.2817C8.21389 14.2817 8.07075 14.2333 7.9486 14.142C7.50246 13.8073 7.44246 13.4349 7.47075 13.1811C7.54875 12.4834 8.41146 11.7531 10.0357 11.0091C10.6803 9.59657 11.2936 7.85614 11.6592 6.402C11.2315 5.47114 10.8157 4.26343 11.1187 3.555C11.225 3.30686 11.3575 3.11657 11.6047 3.03429C11.7025 3.00171 11.9493 2.96057 12.0402 2.96057C12.2562 2.96057 12.446 3.23871 12.5806 3.41014C12.707 3.57129 12.9937 3.91286 12.4207 6.32529C12.9985 7.51843 13.817 8.73386 14.6013 9.56614C15.1632 9.46457 15.6466 9.41271 16.0405 9.41271C16.7116 9.41271 17.1183 9.56914 17.2842 9.89143C17.4213 10.158 17.3652 10.4696 17.117 10.8171C16.8783 11.151 16.5492 11.3276 16.1656 11.3276C15.6445 11.3276 15.0376 10.9984 14.3609 10.3483C13.145 10.6024 11.7252 11.0559 10.5775 11.5577C10.2192 12.318 9.87589 12.9304 9.55617 13.3796C9.11689 13.9946 8.73803 14.2817 8.36303 14.2817ZM9.50389 12.0849C8.58803 12.5996 8.21475 13.0226 8.18775 13.2609C8.18346 13.3003 8.17189 13.404 8.37246 13.5574C8.43632 13.5373 8.80917 13.3671 9.50389 12.0849ZM15.3483 10.1811C15.6976 10.4499 15.7829 10.5857 16.0113 10.5857C16.1116 10.5857 16.3975 10.5814 16.5299 10.3967C16.5937 10.3071 16.6186 10.2497 16.6285 10.2189C16.5757 10.191 16.5059 10.1344 16.1249 10.1344C15.9085 10.1349 15.6363 10.1443 15.3483 10.1811ZM12.1469 7.36029C11.8405 8.42057 11.4359 9.56529 11.0009 10.602C11.8966 10.2544 12.8703 9.951 13.7849 9.73629C13.2063 9.06429 12.6282 8.22514 12.1469 7.36029ZM11.8867 3.73371C11.8447 3.74786 11.3167 4.48671 11.9279 5.112C12.3346 4.20557 11.9052 3.72771 11.8867 3.73371Z" fill="#CC4B4C"/>
<path id="Vector_4" d="M20.5867 23.9999H3.41216C3.06587 23.9999 2.78516 23.7192 2.78516 23.3729V16.7142H21.2137V23.3729C21.2137 23.7192 20.933 23.9999 20.5867 23.9999Z" fill="#CC4B4C"/>
<g id="Group_2">
<path id="Vector_5" d="M7.44938 22.7143H6.74609V18.396H7.98809C8.17152 18.396 8.35324 18.4251 8.53281 18.4839C8.71238 18.5426 8.87352 18.6304 9.01624 18.7474C9.15895 18.8644 9.27424 19.0063 9.36209 19.1721C9.44995 19.338 9.49409 19.5244 9.49409 19.7319C9.49409 19.9509 9.45681 20.1489 9.38266 20.3267C9.30852 20.5046 9.20481 20.6541 9.07195 20.775C8.93909 20.8959 8.77881 20.9897 8.59152 21.0561C8.40424 21.1226 8.19681 21.1556 7.97052 21.1556H7.44895V22.7143H7.44938ZM7.44938 18.9291V20.64H8.09395C8.17966 20.64 8.26452 20.6254 8.34895 20.5959C8.43295 20.5667 8.51009 20.5187 8.58038 20.4523C8.65067 20.3859 8.70724 20.2933 8.75009 20.1741C8.79295 20.055 8.81438 19.9076 8.81438 19.7319C8.81438 19.6616 8.80452 19.5801 8.78524 19.4889C8.76552 19.3971 8.72567 19.3093 8.66524 19.2253C8.60438 19.1413 8.51952 19.071 8.41024 19.0144C8.30095 18.9579 8.15609 18.9296 7.97652 18.9296H7.44938V18.9291Z" fill="white"/>
<path id="Vector_6" d="M13.8067 20.4351C13.8067 20.7904 13.7686 21.0943 13.6923 21.3463C13.616 21.5983 13.5196 21.8091 13.4022 21.9793C13.2847 22.1494 13.1532 22.2831 13.0066 22.3809C12.86 22.4786 12.7186 22.5514 12.5819 22.6007C12.4452 22.6496 12.32 22.6809 12.2069 22.6946C12.0937 22.7074 12.0097 22.7143 11.9549 22.7143H10.3203V18.396H11.621C11.9845 18.396 12.3037 18.4539 12.5789 18.5687C12.854 18.6836 13.0829 18.8374 13.2646 19.0286C13.4463 19.2197 13.5817 19.4379 13.6717 19.6817C13.7617 19.926 13.8067 20.1771 13.8067 20.4351ZM11.7209 22.1987C12.1975 22.1987 12.5412 22.0466 12.752 21.7419C12.9629 21.4371 13.0683 20.9957 13.0683 20.4176C13.0683 20.238 13.0469 20.0601 13.004 19.8844C12.9607 19.7087 12.878 19.5497 12.755 19.407C12.632 19.2643 12.4649 19.149 12.254 19.0611C12.0432 18.9733 11.7697 18.9291 11.4337 18.9291H11.0236V22.1987H11.7209Z" fill="white"/>
<path id="Vector_7" d="M15.541 18.9291V20.2886H17.3457V20.769H15.541V22.7143H14.8262V18.396H17.527V18.9291H15.541Z" fill="white"/>
</g>
</g>
</g>
</svg>
