<svg width="24" height="24" viewBox="0 0 24 24" fill="none" xmlns="http://www.w3.org/2000/svg">
<g id="location_on_FILL0_wght300_GRAD0_opsz24 (3) 1">
<path id="Vector" d="M11.5 11.3954C11.9702 11.3954 12.37 11.227 12.6994 10.8904C13.0288 10.5538 13.1935 10.1452 13.1935 9.66466C13.1935 9.1841 13.0288 8.77552 12.6994 8.4389C12.37 8.10226 11.9702 7.93395 11.5 7.93395C11.0298 7.93395 10.63 8.10226 10.3006 8.4389C9.97117 8.77552 9.80647 9.1841 9.80647 9.66466C9.80647 10.1452 9.97117 10.5538 10.3006 10.8904C10.63 11.227 11.0298 11.3954 11.5 11.3954ZM11.5 19.3587C13.4926 17.5379 14.9988 15.8006 16.0186 14.1465C17.0385 12.4925 17.5484 11.0645 17.5484 9.86245C17.5484 7.9897 16.9647 6.45835 15.7972 5.26839C14.6297 4.07842 13.1973 3.48344 11.5 3.48344C9.80272 3.48344 8.37033 4.07842 7.20282 5.26839C6.03532 6.45835 5.45157 7.9897 5.45157 9.86245C5.45157 11.0645 5.9615 12.4925 6.98136 14.1465C8.00121 15.8006 9.50743 17.5379 11.5 19.3587ZM11.5 21C11.3834 21 11.2698 20.98 11.1594 20.9401C11.049 20.9002 10.9485 20.8421 10.8579 20.7661C8.55273 18.6461 6.83344 16.6786 5.70006 14.8635C4.56669 13.0485 4 11.3814 4 9.86245C4 7.46606 4.75496 5.55655 6.26489 4.13392C7.77481 2.71131 9.51985 2 11.5 2C13.4802 2 15.2252 2.71131 16.7351 4.13392C18.245 5.55655 19 7.46606 19 9.86245C19 11.3814 18.4333 13.0485 17.2999 14.8635C16.1666 16.6786 14.4473 18.6461 12.142 20.7661C12.0577 20.8421 11.9587 20.9002 11.8452 20.9401C11.7317 20.98 11.6166 21 11.5 21Z" fill="#2861F5"/>
</g>
</svg>
