<svg width="24" height="24" viewBox="0 0 24 24" fill="none" xmlns="http://www.w3.org/2000/svg">
<g id="call_FILL0_wght300_GRAD0_opsz24 (8) 1">
<path id="Vector" d="M19.9476 20C17.9983 20 16.068 19.5369 14.1566 18.6107C12.2453 17.6844 10.5388 16.4697 9.03737 14.9666C7.53588 13.4634 6.32096 11.7566 5.39258 9.84631C4.46419 7.93598 4 6.00508 4 4.05358C4 3.75256 4.10023 3.5017 4.30068 3.30102C4.50114 3.10034 4.7517 3 5.05239 3H8.32127C8.58085 3 8.80733 3.08008 9.00072 3.24024C9.19409 3.4004 9.31391 3.6072 9.36018 3.86062L9.93456 6.81293C9.97438 7.05992 9.9702 7.2844 9.92203 7.48637C9.87384 7.68834 9.76815 7.86458 9.60496 8.01509L7.29973 10.2708C8.09128 11.6164 9.03509 12.8321 10.1312 13.9178C11.2272 15.0036 12.4679 15.9504 13.8531 16.7583L16.0928 14.4774C16.256 14.3141 16.449 14.198 16.672 14.1292C16.8949 14.0603 17.1233 14.0458 17.3572 14.0857L20.1404 14.653C20.3935 14.7096 20.6001 14.8322 20.76 15.0206C20.92 15.2091 21 15.4333 21 15.6931V18.9464C21 19.2474 20.8998 19.4983 20.6993 19.699C20.4989 19.8997 20.2483 20 19.9476 20ZM6.5789 8.84679L8.36758 7.13327C8.3997 7.10753 8.42058 7.07215 8.43022 7.02713C8.43986 6.98209 8.43825 6.94029 8.42539 6.90171L7.9898 4.65946C7.97694 4.608 7.95444 4.56942 7.92232 4.54369C7.8902 4.51796 7.84844 4.50509 7.79704 4.50509H5.65373C5.61517 4.50509 5.58304 4.51796 5.55733 4.54369C5.53164 4.56942 5.51879 4.60157 5.51879 4.64017C5.57018 5.32584 5.68229 6.02243 5.85513 6.72997C6.02796 7.43751 6.26921 8.14311 6.5789 8.84679ZM19.3617 18.464C19.4003 18.464 19.4324 18.4512 19.4581 18.4255C19.4838 18.3997 19.4966 18.3675 19.4966 18.3289V16.218C19.4966 16.1665 19.4838 16.1247 19.4581 16.0925C19.4324 16.0603 19.3938 16.0378 19.3424 16.025L17.2377 15.5966C17.1991 15.5837 17.1654 15.5821 17.1365 15.5918C17.1075 15.6014 17.077 15.6223 17.0449 15.6545L15.2601 17.4606C15.9244 17.7707 16.6173 18.0077 17.3388 18.1717C18.0604 18.3357 18.7346 18.4332 19.3617 18.464Z" fill="#2861F5"/>
</g>
</svg>
