<svg width="24" height="24" viewBox="0 0 24 24" fill="none" xmlns="http://www.w3.org/2000/svg">
<g id="mail_FILL0_wght300_GRAD0_opsz24 (3) 1">
<path id="Vector" d="M4.8077 20C4.30257 20 3.875 19.825 3.525 19.475C3.175 19.125 3 18.6974 3 18.1923V6.8077C3 6.30257 3.175 5.875 3.525 5.525C3.875 5.175 4.30257 5 4.8077 5H20.1923C20.6974 5 21.125 5.175 21.475 5.525C21.825 5.875 22 6.30257 22 6.8077V18.1923C22 18.6974 21.825 19.125 21.475 19.475C21.125 19.825 20.6974 20 20.1923 20H4.8077ZM20.5 7.94225L12.9865 12.7519C12.9096 12.7955 12.8301 12.8298 12.7481 12.8548C12.666 12.8798 12.5833 12.8923 12.5 12.8923C12.4166 12.8923 12.334 12.8798 12.2519 12.8548C12.1699 12.8298 12.0904 12.7955 12.0135 12.7519L4.49998 7.94225V18.1923C4.49998 18.282 4.52883 18.3557 4.58653 18.4134C4.64423 18.4711 4.71795 18.5 4.8077 18.5H20.1923C20.282 18.5 20.3557 18.4711 20.4134 18.4134C20.4711 18.3557 20.5 18.282 20.5 18.1923V7.94225ZM12.5 11.5L20.3461 6.49998H4.65383L12.5 11.5ZM4.49998 8.173V7.02978V7.05957V7.02785V8.173Z" fill="#2861F5"/>
</g>
</svg>
