<svg width="24" height="24" viewBox="0 0 24 24" fill="none" xmlns="http://www.w3.org/2000/svg">
<path d="M12.1582 11.75C12.6441 11.75 13.0572 11.5798 13.3976 11.2394C13.738 10.899 13.9082 10.4859 13.9082 9.99998C13.9082 9.51408 13.738 9.10094 13.3976 8.76058C13.0572 8.42019 12.6441 8.25 12.1582 8.25C11.6723 8.25 11.2591 8.42019 10.9188 8.76058C10.5784 9.10094 10.4082 9.51408 10.4082 9.99998C10.4082 10.4859 10.5784 10.899 10.9188 11.2394C11.2591 11.5798 11.6723 11.75 12.1582 11.75ZM12.1582 19.8019C14.2172 17.9609 15.7736 16.2042 16.8274 14.5317C17.8813 12.8593 18.4082 11.4154 18.4082 10.2C18.4082 8.30638 17.805 6.75798 16.5986 5.55478C15.3922 4.35156 13.912 3.74995 12.1582 3.74995C10.4043 3.74995 8.92419 4.35156 7.71778 5.55478C6.51136 6.75798 5.90815 8.30638 5.90815 10.2C5.90815 11.4154 6.43508 12.8593 7.48893 14.5317C8.54278 16.2042 10.0992 17.9609 12.1582 19.8019ZM12.1582 21.4615C12.0377 21.4615 11.9204 21.4413 11.8063 21.4009C11.6922 21.3605 11.5883 21.3019 11.4947 21.225C9.11268 19.0814 7.33608 17.092 6.16493 15.2567C4.99378 13.4215 4.4082 11.7359 4.4082 10.2C4.4082 7.77691 5.18833 5.84614 6.74858 4.40768C8.30883 2.96923 10.112 2.25 12.1582 2.25C14.2043 2.25 16.0075 2.96923 17.5678 4.40768C19.128 5.84614 19.9082 7.77691 19.9082 10.2C19.9082 11.7359 19.3226 13.4215 18.1514 15.2567C16.9803 17.092 15.2037 19.0814 12.8216 21.225C12.7344 21.3019 12.6322 21.3605 12.5149 21.4009C12.3976 21.4413 12.2787 21.4615 12.1582 21.4615Z" fill="#596375"/>
</svg>
